<svg width="141" height="23" viewBox="0 0 141 23" fill="none" xmlns="http://www.w3.org/2000/svg">
<g clip-path="url(#clip0_4912_640)">
<path d="M0.6 10.5001C1.1 7.9001 3.4 6.1001 6.6 6.1001C10.3 6.1001 13.2 7.7001 13.2 12.7001V22.0001H10L9.6 20.0001C8.5 21.4001 7 22.3001 4.8 22.3001C2.1 22.3001 0 20.6001 0 17.5001C0 14.4001 2.8 12.4001 6.7 12.4001H9.3V11.7001C9.3 9.9001 8 9.4001 6.5 9.4001C5.4 9.4001 4.3 9.8001 3.8 11.2001L0.6 10.5001ZM5.7 19.0001C7.5 19.0001 9.3 17.8001 9.3 15.8001V15.5001H6.8C5.1 15.4001 4.1 16.1001 4.1 17.5001C4.1 18.2001 4.7 19.0001 5.7 19.0001Z" fill="black"/>
<path d="M76.0004 10.5001C76.5004 7.9001 78.8004 6.1001 82.0004 6.1001C85.7004 6.1001 88.6004 7.7001 88.6004 12.7001V22.0001H85.4004L85.0004 20.0001C83.9004 21.4001 82.4004 22.3001 80.2004 22.3001C77.5004 22.3001 75.4004 20.6001 75.4004 17.5001C75.4004 14.4001 78.2004 12.4001 82.1004 12.4001H84.7004V11.7001C84.7004 9.9001 83.4004 9.4001 81.9004 9.4001C80.8004 9.4001 79.7004 9.8001 79.2004 11.2001L76.0004 10.5001ZM81.1004 19.0001C82.9004 19.0001 84.7004 17.8001 84.7004 15.8001V15.5001H82.1004C80.4004 15.5001 79.4004 16.1001 79.4004 17.5001C79.5004 18.2001 80.1004 19.0001 81.1004 19.0001Z" fill="black"/>
<path d="M92.0996 22.1001V6.3001H95.9996V8.9001C97.0996 7.0001 98.8996 6.1001 100.6 6.1001C101.3 6.1001 101.9 6.2001 102.5 6.4001L101.8 10.0001C101.3 9.7001 100.8 9.5001 100.2 9.5001C97.8996 9.5001 95.9996 11.4001 95.9996 16.4001V22.0001L92.0996 22.1001Z" fill="black"/>
<path d="M110.799 6.1C112.399 6.1 113.899 6.9 114.599 7.8V0H118.499V22.1H114.599V20.5C114.099 21.3 112.699 22.4 110.799 22.4C106.099 22.4 103.699 19.1 103.699 14.3C103.699 9.5 106.099 6.1 110.799 6.1ZM111.399 19C113.399 19 114.999 17.3 114.999 14.2C114.999 11.1 113.399 9.4 111.399 9.4C109.399 9.4 107.799 11.1 107.799 14.2C107.799 17.3 109.399 19 111.399 19Z" fill="black"/>
<path d="M132.5 8.5999L130.2 10.6999C129.5 9.6999 128.4 9.2999 127.6 9.2999C126.8 9.2999 126.1 9.7999 126.1 10.5999C126.1 11.2999 126.7 11.7999 127.6 12.0999C129.8 12.8999 133.3 13.5999 133.3 16.8999C133.3 19.7999 131.1 22.0999 127.7 22.0999C124.4 22.0999 122.2 19.7999 121.5 17.8999L124.6 16.1999C125.2 17.6999 126.2 18.7999 127.8 18.7999C129 18.7999 129.8 18.1999 129.8 17.0999C129.8 15.7999 127.8 15.4999 125.9 14.6999C124.2 13.9999 122.7 12.8999 122.7 10.4999C122.7 8.0999 124.7 5.8999 127.7 5.8999C129.7 5.9999 131.6 7.0999 132.5 8.5999Z" fill="black"/>
<path d="M51.9 6.2998L49.1 17.1998L46.4 6.2998H42.8L40.2 17.1998L38 10.8998L37.7 11.5998L36.5 15.6998L38.5 22.0998H41.9L44.6 11.8998L47.3 22.0998H50.8L55.8 6.2998H51.9Z" fill="black"/>
<path d="M70.5996 6.2998L67.7996 17.1998L65.0996 6.2998H61.4996L58.8996 17.1998L56.6996 10.8998L56.3996 11.5998L55.0996 15.6998L57.1996 22.0998H60.5996L63.2996 11.8998L65.9996 22.0998H69.3996L74.4996 6.2998H70.5996Z" fill="black"/>
<path d="M37.1004 6.2998L32.1004 21.9998H28.7004L26.0004 11.8998L23.3004 22.0998H19.9004L14.9004 6.3998H18.8004L21.6004 17.1998L24.3004 6.3998H27.9004L30.6004 17.1998L33.4004 6.3998L37.1004 6.2998Z" fill="black"/>
<path d="M138.401 17C139.901 17 141.001 18.1 141.001 19.6C141.001 21.1 139.901 22.2 138.401 22.2C136.901 22.2 135.801 21.1 135.801 19.6C135.801 18.1 136.901 17 138.401 17Z" fill="black"/>
</g>
<defs>
<clipPath id="clip0_4912_640">
<rect width="141" height="22.3" fill="white"/>
</clipPath>
</defs>
</svg>
