<svg width="104" height="104" viewBox="0 0 104 104" fill="none" xmlns="http://www.w3.org/2000/svg">
<path d="M88.1131 73.5331L93.6448 81.589L92.7399 82.9231L87.2739 74.7703L88.1131 73.5331ZM88.2006 73.404L97.7969 75.4673L96.8993 76.7906L87.3688 74.6305L88.2006 73.404Z" fill="white"/>
<path d="M83.7629 79.4658L90.2441 85.8535L89.1856 86.9276L82.7043 80.5398L83.7629 79.4658Z" fill="white"/>
<path d="M80.0973 83.357L85.3965 90.7549L80.8415 94.0177L80.039 92.8974L83.3681 90.5128L81.96 88.547L79.022 90.6516L78.2347 89.5525L81.1727 87.4479L79.6738 85.3554L76.3131 87.7627L75.5106 86.6425L80.0973 83.357Z" fill="white"/>
<path d="M66.5268 91.2L67.2519 100.658L65.8177 101.202L65.1655 91.7166L66.5268 91.2ZM71.6802 89.2442L77.4492 96.7881L76.0272 97.3278L70.3067 89.7654L71.6802 89.2442ZM71.4979 89.3134L72.3323 98.73L71.0318 99.2235L70.1852 89.8116L71.4979 89.3134ZM66.6605 91.1492L72.2351 98.7669L70.9346 99.2605L65.2871 91.6704L66.6605 91.1492Z" fill="white"/>
<path d="M55.8822 93.9776L55.4609 103.068L53.8507 102.993L51.1887 98.6534L48.1628 102.73L46.5395 102.654L46.9608 93.5642L48.4671 93.634L48.156 100.348L51.3196 96.1087L54.0659 100.596L54.3758 93.9078L55.8822 93.9776Z" fill="white"/>
<path d="M39.5895 95.8277L40.7981 96.6458L36.5952 100.501L34.9371 100.011L39.5895 95.8277ZM42.0668 92.6286L40.8287 96.8175L39.3826 96.3901L40.6206 92.2012L42.0668 92.6286ZM40.9608 96.233L42.5918 102.273L40.9337 101.783L39.5016 96.2626L40.9608 96.233Z" fill="white"/>
<path d="M25.7638 84.5923L18.0592 90.126L16.849 89.1833L24.6151 83.6976L25.7638 84.5923ZM30.1123 87.9793L26.6641 96.8281L25.4641 95.8935L28.9534 87.0766L30.1123 87.9793ZM29.9585 87.8595L22.3462 93.4651L21.2488 92.6103L28.8508 86.9968L29.9585 87.8595ZM25.8766 84.6802L22.2642 93.4012L21.1668 92.5464L24.7176 83.7775L25.8766 84.6802Z" fill="white"/>
<path d="M18.8412 77.4049C19.374 78.1319 19.6846 78.8928 19.773 79.6877C19.8614 80.4826 19.7368 81.2508 19.3993 81.9925C19.0567 82.7272 18.515 83.3661 17.774 83.9092C17.0331 84.4523 16.2643 84.7741 15.4675 84.8746C14.6586 84.9732 13.8911 84.8643 13.1648 84.5478C12.4315 84.2364 11.8009 83.7207 11.2732 83.0007C10.7403 82.2738 10.4358 81.5138 10.3595 80.7208C10.2712 79.9259 10.4008 79.1646 10.7486 78.4369C11.0842 77.7074 11.6224 77.071 12.3634 76.5279C13.1043 75.9848 13.8766 75.6604 14.6804 75.5548C15.479 75.4422 16.2415 75.5442 16.9678 75.8607C17.6889 76.1702 18.3134 76.685 18.8412 77.4049ZM17.7298 78.2196C17.3813 77.7443 16.9586 77.4094 16.4615 77.215C15.9644 77.0207 15.4423 76.9681 14.8953 77.0575C14.3362 77.145 13.7945 77.3808 13.2703 77.7651C12.753 78.1443 12.3685 78.5873 12.1168 79.0942C11.8651 79.601 11.7632 80.1217 11.8111 80.6561C11.8469 81.1887 12.0415 81.6961 12.3951 82.1784C12.7435 82.6537 13.1688 82.992 13.671 83.1934C14.1611 83.3929 14.6883 83.4525 15.2526 83.372C15.8047 83.2896 16.3429 83.0563 16.8671 82.672C17.3914 82.2877 17.7793 81.8422 18.031 81.3353C18.2706 80.8265 18.37 80.3024 18.3291 79.7629C18.2831 79.2163 18.0833 78.7019 17.7298 78.2196Z" fill="white"/>
<path d="M14.8168 72.0859L6.39648 75.5366L5.17886 72.5654C4.94224 71.988 4.84583 71.4328 4.88962 70.8997C4.93341 70.3666 5.10484 69.8936 5.40394 69.4807C5.69501 69.0711 6.10117 68.7594 6.62243 68.5458C7.14369 68.3322 7.65903 68.2756 8.16845 68.3759C8.67459 68.4682 9.1376 68.6952 9.55749 69.057C9.96936 69.4221 10.2936 69.8933 10.5302 70.4707L11.1415 71.9623L14.245 70.6905L14.8168 72.0859ZM12.9041 67.4186L10.2963 70.7914L9.10687 70.0144L12.2584 65.8428L12.9041 67.4186ZM9.85439 72.4898L9.18396 70.8539C9.07222 70.5812 8.91348 70.3653 8.70774 70.2061C8.49872 70.0388 8.26366 69.9338 8.00258 69.8909C7.7382 69.84 7.4737 69.8688 7.20906 69.9773C6.80809 70.1416 6.53845 70.4207 6.40014 70.8146C6.26183 71.2084 6.28634 71.6339 6.47367 72.091L7.09973 73.6187L9.85439 72.4898Z" fill="white"/>
<path d="M8.37918 62.5848L6.70584 63.1539L1.32969 59.4814L1.02519 57.5685L8.37918 62.5848ZM11.1197 63.0963L2.13281 64.5269L1.89984 63.0633L10.8867 61.6328L11.1197 63.0963ZM10.2798 57.8198L6.28559 62.1677L5.20649 61.2601L9.98753 55.9839L10.2798 57.8198Z" fill="white"/>
<path d="M95.6556 58.9881C95.7443 58.6806 95.8967 58.4228 96.1129 58.2145C96.3359 58.0187 96.5897 57.8785 96.8743 57.7941C97.1657 57.722 97.4651 57.7303 97.7725 57.819C98.0704 57.9049 98.3186 58.0546 98.5173 58.268C98.7227 58.4938 98.8629 58.7476 98.9377 59.0294C99.0098 59.3208 99.0015 59.6202 98.9128 59.9277C98.8268 60.2255 98.6758 60.4786 98.4596 60.6868C98.2434 60.8951 97.9896 61.0352 97.6982 61.1073C97.4137 61.1917 97.1225 61.191 96.8246 61.105C96.5172 61.0163 96.2607 60.8591 96.0552 60.6333C95.8566 60.4199 95.7165 60.1661 95.6348 59.8719C95.5627 59.5805 95.5697 59.2859 95.6556 58.9881Z" fill="white"/>
<path d="M8.84421 42.7565C8.76729 43.0671 8.62479 43.3306 8.41669 43.5469C8.2013 43.7511 7.95303 43.9008 7.6719 43.9961C7.38347 44.0792 7.08395 44.0823 6.77333 44.0054C6.47242 43.9309 6.21865 43.7907 6.01203 43.5851C5.79811 43.3673 5.64839 43.119 5.56288 42.8403C5.47977 42.5518 5.47667 42.2523 5.55359 41.9417C5.6281 41.6408 5.7694 41.3822 5.9775 41.1658C6.18559 40.9495 6.43385 40.7998 6.72229 40.7167C7.00341 40.6215 7.29443 40.6111 7.59535 40.6856C7.90597 40.7625 8.16824 40.9099 8.38216 41.1277C8.58878 41.3334 8.73849 41.5816 8.83131 41.8725C8.91442 42.1609 8.91872 42.4556 8.84421 42.7565Z" fill="white"/>
<path d="M16.0716 29.5708L10.5597 21.5013L11.4679 20.1694L16.9138 28.3356L16.0716 29.5708ZM15.9837 29.6997L6.39258 27.6128L7.29339 26.2917L16.8186 28.4753L15.9837 29.6997Z" fill="white"/>
<path d="M20.4202 23.6341L13.957 17.228L15.0186 16.157L21.4818 22.563L20.4202 23.6341Z" fill="white"/>
<path d="M24.2251 19.6162L18.9727 12.1851L23.5481 8.95105L24.3435 10.0763L20.9995 12.4399L22.3951 14.4145L25.3463 12.3285L26.1267 13.4326L23.1755 15.5185L24.6612 17.6205L28.037 15.2344L28.8324 16.3597L24.2251 19.6162Z" fill="white"/>
<path d="M37.654 11.9021L36.9797 2.44021L38.4168 1.90364L39.018 11.3928L37.654 11.9021ZM32.4902 13.8301L26.7617 6.25537L28.1866 5.72334L33.8664 13.3163L32.4902 13.8301ZM32.6728 13.7619L31.889 4.34097L33.1921 3.85441L33.9882 13.2708L32.6728 13.7619ZM37.52 11.9521L31.9864 4.30459L33.2895 3.81804L38.8962 11.4383L37.52 11.9521Z" fill="white"/>
<path d="M48.2788 9.08839L48.7383 0L50.3482 0.081402L52.9919 4.43245L56.035 0.368935L57.6579 0.450994L57.1984 9.53938L55.6923 9.46323L56.0317 2.75081L52.8502 6.97654L50.1229 2.47808L49.7848 9.16454L48.2788 9.08839Z" fill="white"/>
<path d="M64.7755 7.31189L63.5709 6.48787L67.7925 2.65359L69.4482 3.15173L64.7755 7.31189ZM62.2826 10.4988L63.5411 6.31601L64.9852 6.75048L63.7267 10.9333L62.2826 10.4988ZM63.4062 6.89989L61.8047 0.852051L63.4604 1.35019L64.8655 6.87739L63.4062 6.89989Z" fill="white"/>
<path d="M78.5184 18.5645L86.2577 13.0796L87.462 14.0298L79.6614 19.4664L78.5184 18.5645ZM74.1913 15.1501L77.6953 6.32324L78.8894 7.26542L75.3445 16.0601L74.1913 15.1501ZM74.3444 15.2709L81.9918 9.71348L83.0838 10.5751L75.4466 16.1406L74.3444 15.2709ZM78.4062 18.4759L82.0735 9.7779L83.1655 10.6396L79.5594 19.3859L78.4062 18.4759Z" fill="white"/>
<path d="M85.4186 25.7555C84.8903 25.0252 84.5845 24.2624 84.5012 23.467C84.4179 22.6715 84.5473 21.9041 84.8894 21.1645C85.2367 20.432 85.7825 19.7965 86.5268 19.2581C87.2712 18.7197 88.042 18.4028 88.8394 18.3073C89.6489 18.2139 90.4157 18.3277 91.14 18.6487C91.8714 18.9648 92.4986 19.4844 93.0218 20.2077C93.55 20.938 93.8498 21.6999 93.921 22.4934C94.0044 23.2888 93.8699 24.0493 93.5175 24.7747C93.1773 25.5022 92.635 26.1351 91.8907 26.6735C91.1463 27.2119 90.372 27.5314 89.5676 27.6319C88.7683 27.7395 88.0065 27.6327 87.2822 27.3116C86.563 26.9975 85.9418 26.4788 85.4186 25.7555ZM86.5351 24.9479C86.8805 25.4254 87.3011 25.7629 87.797 25.9605C88.2929 26.158 88.8146 26.2138 89.3621 26.1279C89.9218 26.044 90.465 25.8116 90.9916 25.4306C91.5113 25.0547 91.8985 24.6141 92.1534 24.1089C92.4083 23.6036 92.5135 23.0836 92.469 22.5489C92.4366 22.0161 92.2452 21.5075 91.8947 21.0229C91.5493 20.5454 91.1262 20.2044 90.6252 19.9999C90.1364 19.7972 89.6096 19.7344 89.0448 19.8113C88.4922 19.8902 87.9525 20.1201 87.4259 20.501C86.8992 20.882 86.5084 21.3251 86.2535 21.8304C86.0107 22.3376 85.9081 22.8611 85.9455 23.4009C85.9881 23.9477 86.1846 24.4634 86.5351 24.9479Z" fill="white"/>
<path d="M89.3939 31.0072L97.8203 27.5713L99.0327 30.5446C99.2683 31.1224 99.3637 31.6778 99.319 32.2108C99.2743 32.7439 99.102 33.2166 98.8022 33.6289C98.5104 34.0381 98.1037 34.349 97.582 34.5617C97.0604 34.7744 96.545 34.8301 96.0357 34.7289C95.5297 34.6357 95.0671 34.4078 94.6479 34.0453C94.2367 33.6795 93.9132 33.2077 93.6776 32.6299L93.069 31.1372L89.9633 32.4036L89.3939 31.0072ZM91.2983 35.6778L93.9121 32.3096L95.1002 33.0887L91.9413 37.2548L91.2983 35.6778ZM94.357 30.612L95.0246 32.2491C95.1358 32.522 95.2942 32.7382 95.4997 32.8978C95.7084 33.0654 95.9433 33.1708 96.2043 33.2141C96.4685 33.2655 96.7331 33.2372 96.9979 33.1292C97.3992 32.9656 97.6693 32.687 97.8083 32.2933C97.9473 31.8997 97.9236 31.4742 97.7371 31.0168L97.1137 29.488L94.357 30.612Z" fill="white"/>
<path d="M95.8679 40.6803L97.5438 40.1188L102.903 43.8157L103.199 45.73L95.8679 40.6803ZM93.1298 40.1563L102.123 38.7666L102.349 40.2312L93.3561 41.6209L93.1298 40.1563ZM93.9458 45.4366L97.9596 41.1069L99.0346 42.0194L94.2297 47.2738L93.9458 45.4366Z" fill="white"/>
</svg>
