<svg width="60" height="10" viewBox="0 0 60 10" fill="none" xmlns="http://www.w3.org/2000/svg">
<path d="M5.46 0.504C6.372 0.504 7.064 0.708 7.536 1.116C8.008 1.524 8.244 2.068 8.244 2.748C8.244 2.948 8.228 3.128 8.196 3.288C8.092 3.864 7.844 4.372 7.452 4.812C7.06 5.244 6.552 5.556 5.928 5.748L7.2 9H4.272L3.204 5.952L2.664 9H0L1.5 0.504H5.46ZM3.516 4.176H4.572C4.828 4.176 5.028 4.12 5.172 4.008C5.324 3.888 5.424 3.704 5.472 3.456C5.48 3.416 5.484 3.364 5.484 3.3C5.484 3.124 5.428 2.988 5.316 2.892C5.204 2.788 5.04 2.736 4.824 2.736H3.768L3.516 4.176ZM13.7151 7.716H10.8831L10.2351 9H7.43906L12.0471 0.504H15.1191L16.7151 9H13.9071L13.7151 7.716ZM13.4271 5.712L13.0791 3.348L11.8911 5.712H13.4271ZM22.3603 0.504C23.1443 0.504 23.8163 0.648 24.3763 0.935999C24.9363 1.216 25.3643 1.612 25.6603 2.124C25.9563 2.628 26.1043 3.212 26.1043 3.876C26.1043 4.14 26.0803 4.424 26.0323 4.728C25.8883 5.536 25.5763 6.264 25.0963 6.912C24.6243 7.56 24.0203 8.072 23.2843 8.448C22.5563 8.816 21.7483 9 20.8603 9H17.3203L18.8203 0.504H22.3603ZM21.0403 6.624C21.6403 6.624 22.1443 6.46 22.5523 6.132C22.9683 5.804 23.2283 5.336 23.3323 4.728C23.3563 4.568 23.3683 4.42 23.3683 4.284C23.3683 3.812 23.2203 3.452 22.9243 3.204C22.6363 2.956 22.2323 2.832 21.7123 2.832H21.0763L20.4043 6.624H21.0403ZM30.4023 9.084C29.6823 9.084 29.0503 8.936 28.5063 8.64C27.9623 8.344 27.5423 7.928 27.2463 7.392C26.9503 6.848 26.8023 6.228 26.8023 5.532C26.8023 4.516 27.0103 3.62 27.4263 2.844C27.8503 2.06 28.4383 1.452 29.1903 1.02C29.9503 0.58 30.8223 0.36 31.8063 0.36C32.5423 0.36 33.1823 0.508 33.7263 0.804C34.2783 1.092 34.7023 1.504 34.9983 2.04C35.2943 2.568 35.4423 3.18 35.4423 3.876C35.4423 4.884 35.2303 5.784 34.8063 6.576C34.3903 7.368 33.7983 7.984 33.0303 8.424C32.2703 8.864 31.3943 9.084 30.4023 9.084ZM30.8103 6.6C31.2263 6.6 31.5863 6.492 31.8903 6.276C32.2023 6.052 32.4383 5.76 32.5983 5.4C32.7583 5.032 32.8383 4.636 32.8383 4.212C32.8383 3.772 32.7183 3.432 32.4783 3.192C32.2463 2.944 31.9103 2.82 31.4703 2.82C31.0543 2.82 30.6903 2.928 30.3783 3.144C30.0663 3.36 29.8263 3.652 29.6583 4.02C29.4983 4.38 29.4183 4.772 29.4183 5.196C29.4183 5.636 29.5343 5.98 29.7663 6.228C30.0063 6.476 30.3543 6.6 30.8103 6.6ZM47.4073 0.504L45.9073 9H43.2553L43.9993 4.776L41.9473 9H39.6673L39.1033 4.74L38.3593 9H35.6953L37.1953 0.504H40.4593L41.4313 5.616L44.1553 0.504H47.4073ZM51.2734 0.504L49.7734 9H47.1094L48.6094 0.504H51.2734ZM56.4366 0.504C57.3486 0.504 58.0406 0.708 58.5126 1.116C58.9846 1.524 59.2206 2.068 59.2206 2.748C59.2206 2.948 59.2046 3.128 59.1726 3.288C59.0686 3.864 58.8206 4.372 58.4286 4.812C58.0366 5.244 57.5286 5.556 56.9046 5.748L58.1766 9H55.2486L54.1806 5.952L53.6406 9H50.9766L52.4766 0.504H56.4366ZM54.4926 4.176H55.5486C55.8046 4.176 56.0046 4.12 56.1486 4.008C56.3006 3.888 56.4006 3.704 56.4486 3.456C56.4566 3.416 56.4606 3.364 56.4606 3.3C56.4606 3.124 56.4046 2.988 56.2926 2.892C56.1806 2.788 56.0166 2.736 55.8006 2.736H54.7446L54.4926 4.176Z" fill="white"/>
</svg>
